# xmcd
#
# Track frame offsets: 
#        150
#        14645
#        27757
#        43897
#        54405
#        68185
#        82742
#        95232
#        108192
#        120240
#        134107
#        144630
#        154977
#        168177
#        184667
#        200810
#        219275
#        232217
#
# Disc length: 3282 seconds
#
# Revision: 1
# Processed by: cddbd v1.5.2PL0 Copyright (c) Steve Scherf et al.
# Submitted via: ExactAudioCopyFreeDBPlugin 1.0
#
DISCID=040cd012
DTITLE=Various Artist - Drivin' Country
DYEAR=1996
DGENRE=Country
TTITLE0=Glen Campbell - 01 Rhinstone Cowboy
TTITLE1=Crystal Gayle - 02 Talking in your Sleep
TTITLE2=Billy Jo Spears - 03 Blanket on the Ground
TTITLE3=Slim Whitman - 04 Rose Marie
TTITLE4=Willie Nelson - 05 Have I Told Your Lately That I Love You
TTITLE5=Don Williams - 06 Another Place, Another Time
TTITLE6=Faron Young - 07 Sweet Dreams
TTITLE7=Bobbie Gentry - 08 I'll Never Fall In Love Again
TTITLE8=Wanda Jackson - 09 Stand By Your Man
TTITLE9=Juice Newton - 10 All I Have To Do Is Dream
TTITLE10=Ferlin Husky - 11 Wings Of A Dove
TTITLE11=Tennessee Ernie Ford - 12 King Of The Road
TTITLE12=Dr Hoook - 13 When You're In Love With A Beautiful Woman
TTITLE13=Olivia Newton John - 14 I Honestly Love You
TTITLE14=Joe South - 15 Games People Play
TTITLE15=Billy Crash Cradock - 16 I Just Had You On My Mind
TTITLE16=Willie Nelson - 17 Crazy
TTITLE17=Lacy J Dalton - 18 Still Crazy After All These Years
EXTD=YEAR: 1996
EXTT0=
EXTT1=
EXTT2=
EXTT3=
EXTT4=
EXTT5=
EXTT6=
EXTT7=
EXTT8=
EXTT9=
EXTT10=
EXTT11=
EXTT12=
EXTT13=
EXTT14=
EXTT15=
EXTT16=
EXTT17=
PLAYORDER=
